<svg xmlns="http://www.w3.org/2000/svg" viewBox="0 0 512 512">
  <defs>
    <linearGradient id="g" x1="0" y1="0" x2="1" y2="1">
      <stop offset="0%" stop-color="#ff8bd8"/>
      <stop offset="48%" stop-color="#ff4fc3"/>
      <stop offset="100%" stop-color="#7c5cff"/>
    </linearGradient>
    <filter id="s" x="-30%" y="-30%" width="160%" height="160%">
      <feDropShadow dx="0" dy="18" stdDeviation="18" flood-color="#7c5cff" flood-opacity=".28"/>
    </filter>
  </defs>
  <rect width="512" height="512" rx="128" fill="#fff1fb"/>
  <circle cx="115" cy="100" r="90" fill="#48d7ff" opacity=".25"/>
  <circle cx="420" cy="385" r="120" fill="#ff4fc3" opacity=".22"/>
  <rect x="78" y="116" width="356" height="280" rx="82" fill="url(#g)" filter="url(#s)"/>
  <path d="M142 205c0-36 29-65 65-65 20 0 39 10 51 25 12-15 31-25 51-25 36 0 65 29 65 65 0 77-116 139-116 139S142 282 142 205Z" fill="white" opacity=".96"/>
  <path d="M120 356c55 10 103 8 151-9" fill="none" stroke="white" stroke-width="22" stroke-linecap="round" opacity=".72"/>
</svg>
